<?xml version="1.0" standalone="no"?><!DOCTYPE svg PUBLIC "-//W3C//DTD SVG 1.1//EN" "http://www.w3.org/Graphics/SVG/1.1/DTD/svg11.dtd"><svg t="1760620006464" class="icon" viewBox="0 0 1024 1024" version="1.1" xmlns="http://www.w3.org/2000/svg" p-id="3614" width="190" height="190" xmlns:xlink="http://www.w3.org/1999/xlink"><path d="M512.825 2.49C229.78 2.49 0.347 206.42 0.347 458.028c0 147.79 72.163 279.138 194.83 362.373 0.727 0.485-12.627 201.108-12.627 201.108l206.019-120.274c37.784 7.898 80.438 12.333 120.918 12.333 283.043 0 514.166-203.93 514.166-455.54 0-251.608-227.785-455.538-510.828-455.538zM263.463 523.996c-35.317 0-63.956-28.636-63.956-63.956 0-35.323 28.64-63.957 63.956-63.957 35.325 0 63.957 28.634 63.957 63.957 0 35.321-28.632 63.956-63.957 63.956z m248.537 0c-35.325 0-63.957-28.636-63.957-63.956 0-35.323 28.632-63.957 63.957-63.957 35.317 0 63.957 28.634 63.957 63.957 0 35.321-28.64 63.956-63.957 63.956z m248.528 0c-35.324 0-63.956-28.636-63.956-63.956 0-35.323 28.632-63.957 63.956-63.957s63.957 28.634 63.957 63.957c0 35.321-28.632 63.956-63.957 63.956z" p-id="3615"></path></svg>